<svg preserveAspectRatio="xMidYMid meet" data-bbox="0.008 0.01 525.975 557.141" viewBox="0.008 0.01 525.975 557.141" height="119.703" width="113" xmlns="http://www.w3.org/2000/svg" shape-rendering="geometricPrecision" text-rendering="geometricPrecision" image-rendering="optimizeQuality" fill-rule="evenodd" clip-rule="evenodd" data-type="color" role="presentation" aria-hidden="true" aria-label=""><defs><style>#comp-kh6k2372 svg [data-color="1"] {fill: #46402C;}</style></defs>
    <g>
        <path d="M292.24 533.45c18.38 9.35 8.74 30.73-9.63 21.39-21.7-11.03-34.36-22.62-50.03-34.26-57.8 24.01-136.9 47.08-194.6 22.67-52.82-22.35-49.43-96.81 3.29-119.06 53.03-22.37 104.1-6.7 145.49 28.79l40.02 34.25 30.42-13.7C148.66 391.35 120.26 316.4 126.38 178.78c.43-9.75 9.63-16.73 19.1-14.56 44.09 10.06 81.95 27.57 104.08 65.5 22.46-42.32 67.83-59.92 115.41-65.81 8.8-1.09 16.59 5.05 17.54 14.68 8.18 83.03-18.92 169.89-68.78 229.87-13.07 15.74-25.33 1.01-12.24-14.73 40.79-49.08 54.62-107.56 51.53-175.91-46.39 9.02-86.21 21.34-90.02 74.29-1.34 18.54-18.09 17.12-21.25-.89-8.6-48.94-41.37-58.21-84.77-71.39-2.09 125.09 25.5 168.44 126.67 240.77l2.33-1.18c58.99-29.8 126.15-63.79 195.66-37.12 59.79 24.59 57.87 97.71 1.76 121.07-64.14 26.71-142.61-12.66-197.08-49.14l-30.63 14.31c10.74 7.16 23.22 18.12 36.57 24.91zm-87.67-35.31c-38.47-32.76-74.67-71.39-136.82-45.17-27.36 11.54-30.54 49.97-3.29 61.51 42.27 17.89 91.74 2.26 140.11-16.34zm248.92-47.88c-51.9-19.92-91.15 5.92-140.03 30.32 43.11 26.81 93.66 52.27 140.93 32.59 30.96-12.89 31.66-51.85-.9-62.91zM251.28.01c39.89 0 66.21 39.22 66.1 79.99-.09 36.56-24.65 77.49-64.45 78.21-34.28.63-67.72-30.77-67.72-79.13 0-40.01 26.47-79.07 66.07-79.07zm-40.36 79.34c.24 18.26 19.47 58.8 40.7 58.98 18.53.16 38.23-35.52 38.87-60.95 1.07-42.43-80.16-42.83-79.57 1.97z" fill="#666666" fill-rule="nonzero" data-color="1"></path>
    </g>
</svg>